<?xml version="1.0" encoding="UTF-8" standalone="no"?>

<svg
   version="1.1"
   id="svg2"
   width="666.66669"
   height="666.66669"
   viewBox="0 0 666.66669 666.66669"
   sodipodi:docname="9276419.ai"
   xmlns:inkscape="http://www.inkscape.org/namespaces/inkscape"
   xmlns:sodipodi="http://sodipodi.sourceforge.net/DTD/sodipodi-0.dtd"
   xmlns="http://www.w3.org/2000/svg"
   xmlns:svg="http://www.w3.org/2000/svg">
  <defs
     id="defs6">
    <clipPath
       clipPathUnits="userSpaceOnUse"
       id="clipPath18">
      <path
         d="M 0,500 H 500 V 0 H 0 Z"
         id="path16" />
    </clipPath>
    <clipPath
       clipPathUnits="userSpaceOnUse"
       id="clipPath26">
      <path
         d="M 25,418.086 H 475 V 82.3972 H 25 Z"
         id="path24" />
    </clipPath>
  </defs>
  <sodipodi:namedview
     id="namedview4"
     pagecolor="#ffffff"
     bordercolor="#000000"
     borderopacity="0.25"
     inkscape:showpageshadow="2"
     inkscape:pageopacity="0.0"
     inkscape:pagecheckerboard="0"
     inkscape:deskcolor="#d1d1d1" />
  <g
     id="g8"
     inkscape:groupmode="layer"
     inkscape:label="9276419"
     transform="matrix(1.3333333,0,0,-1.3333333,0,666.66667)">
    <path
       d="M 0,0 H 500 V 500 H 0 Z"
       style="fill:#ffffff;fill-opacity:1;fill-rule:nonzero;stroke:none"
       id="path10" />
    <g
       id="g12">
      <g
         id="g14"
         clip-path="url(#clipPath18)">
        <g
           id="g20">
          <g
             id="g22" />
          <g
             id="g46">
            <g
               clip-path="url(#clipPath26)"
               opacity="0.399994"
               id="g44">
              <g
                 transform="translate(61.8452,83.3887)"
                 id="g30">
                <path
                   d="m 0,0 c 0,0 -51.556,31.031 -32.697,72.545 11.089,24.408 59.219,15.32 54.156,55.941 -6.638,53.263 -59.531,89.138 -29.007,134.687 31.429,46.899 109.895,-9.043 186.59,40.585 49.503,32.033 137.615,49.95 169.548,-0.975 30.51,-48.653 -30.476,-102.77 13.799,-139.12 44.276,-36.35 94.989,-91.196 -16.946,-155.832 -5.573,-3.218 -10.472,-8.822 -16.544,-8.822 -93.236,0 -179.177,0.279 -179.177,0.279"
                   style="fill:#979797;fill-opacity:1;fill-rule:nonzero;stroke:none"
                   id="path28" />
              </g>
              <g
                 transform="translate(51.7944,128.126)"
                 id="g34">
                <path
                   d="M 0,0 C -11.586,1.853 -0.744,-32.161 15.846,-27.778 32.436,-23.396 9.735,-1.557 0,0"
                   style="fill:#979797;fill-opacity:1;fill-rule:nonzero;stroke:none"
                   id="path32" />
              </g>
              <g
                 transform="translate(45.3101,147.3867)"
                 id="g38">
                <path
                   d="M 0,0 C -6.635,-2.392 -4.372,-16.812 5.445,-13.754 15.262,-10.695 6.524,2.352 0,0"
                   style="fill:#979797;fill-opacity:1;fill-rule:nonzero;stroke:none"
                   id="path36" />
              </g>
              <g
                 transform="translate(390.7441,82.3975)"
                 id="g42">
                <path
                   d="M 0,0 C -103.93,0.279 -179.177,0.279 -179.177,0.279"
                   style="fill:#979797;fill-opacity:1;fill-rule:nonzero;stroke:none"
                   id="path40" />
              </g>
            </g>
          </g>
        </g>
        <g
           id="g48"
           transform="translate(411.9434,380.709)">
          <path
             d="m 0,0 -0.177,0.763 c 0.949,0.219 1.928,0.33 2.907,0.33 h 0.006 c 0.956,0 1.91,-0.105 2.836,-0.312 L 5.401,0.017 C 4.532,0.21 3.635,0.309 2.736,0.309 H 2.731 C 1.81,0.309 0.891,0.205 0,0 m 13.658,-6.522 c -0.792,1.626 -1.962,3.081 -3.385,4.209 L 10.76,-1.7 c 1.513,-1.199 2.76,-2.749 3.602,-4.48 z M -8.219,-6.588 -8.925,-6.25 c 0.833,1.737 2.069,3.294 3.576,4.503 l 0.49,-0.611 c -1.415,-1.136 -2.578,-2.599 -3.36,-4.23 m 22.603,-10.85 -0.705,0.34 c 0.796,1.649 1.198,3.42 1.198,5.266 l 0.561,0.037 0.222,-0.019 c 10e-4,-1.982 -0.429,-3.869 -1.276,-5.624 m -23.285,-0.024 c -0.851,1.755 -1.285,3.64 -1.287,5.603 l 0.783,0.002 c 0.003,-1.845 0.41,-3.615 1.209,-5.263 z m 14.524,-6.972 -0.175,0.763 c 1.764,0.403 3.446,1.215 4.863,2.349 l 0.489,-0.612 c -1.51,-1.207 -3.3,-2.071 -5.177,-2.5 m -5.749,-0.005 c -1.878,0.425 -3.67,1.286 -5.183,2.491 l 0.489,0.613 c 1.42,-1.132 3.103,-1.941 4.867,-2.34 z"
             style="fill:#26333b;fill-opacity:1;fill-rule:nonzero;stroke:none"
             id="path50" />
        </g>
        <g
           id="g52"
           transform="translate(42.8555,240.1377)">
          <path
             d="M 0,0 -0.154,0.768 C 1.433,1.085 3.065,1.245 4.697,1.245 4.932,1.246 5.156,1.242 5.384,1.236 L 5.363,0.453 C 5.142,0.459 4.907,0.476 4.697,0.462 3.117,0.462 1.536,0.307 0,0 m 15.718,-2.223 c -1.596,0.83 -3.287,1.479 -5.026,1.928 l 0.196,0.759 C 12.685,0 14.431,-0.67 16.08,-1.528 Z M -9.745,-4.4 l -0.474,0.623 c 1.478,1.124 3.084,2.081 4.773,2.844 l 0.322,-0.713 C -6.759,-2.386 -8.313,-3.313 -9.745,-4.4 m 33.609,-4.756 c -1.074,1.44 -2.313,2.76 -3.682,3.926 l 0.508,0.596 c 1.413,-1.203 2.692,-2.567 3.802,-4.054 z m -40.468,-3.454 -0.698,0.355 c 0.841,1.652 1.871,3.213 3.063,4.639 l 0.602,-0.502 c -1.155,-1.381 -2.153,-2.893 -2.967,-4.492 m 44.778,-6.332 c -0.336,1.765 -0.873,3.494 -1.598,5.138 l 0.717,0.317 c 0.749,-1.7 1.304,-3.486 1.65,-5.309 z m -47.358,-4.047 -0.783,0.014 c 0.033,1.862 0.276,3.716 0.721,5.51 l 0.76,-0.188 c -0.431,-1.738 -0.666,-3.533 -0.698,-5.336 m 47.941,-5.963 -0.763,0.175 c 0.398,1.743 0.6,3.542 0.6,5.347 h 0.784 c 0,-1.864 -0.209,-3.722 -0.621,-5.522 M -17.7,-33.785 c -0.78,1.685 -1.368,3.461 -1.748,5.276 l 0.766,0.161 c 0.368,-1.758 0.938,-3.476 1.693,-5.108 z m 41.633,-5.108 -0.611,0.492 c 1.13,1.402 2.099,2.931 2.884,4.546 l 0.705,-0.342 c -0.811,-1.668 -1.812,-3.247 -2.978,-4.696 m -34.869,-3.623 c -1.435,1.177 -2.739,2.517 -3.875,3.984 l 0.619,0.48 c 1.1,-1.421 2.363,-2.719 3.753,-3.858 z m 26.2,-3.219 -0.335,0.707 c 1.619,0.767 3.157,1.722 4.57,2.84 l 0.486,-0.616 c -1.46,-1.152 -3.048,-2.138 -4.721,-2.931 m -16.306,-1.698 c -1.805,0.431 -3.563,1.069 -5.227,1.896 l 0.349,0.701 c 1.61,-0.8 3.313,-1.417 5.061,-1.834 z m 5.75,-0.671 H 4.703 4.476 l 0.007,0.785 0.22,-0.002 h 0.005 c 1.729,0 3.454,0.186 5.128,0.552 l 0.168,-0.764 c -1.729,-0.379 -3.511,-0.571 -5.296,-0.571"
             style="fill:#26333b;fill-opacity:1;fill-rule:nonzero;stroke:none"
             id="path54" />
        </g>
        <g
           id="g56"
           transform="translate(78.1084,203)">
          <path
             d="m 0,0 c 0,-4.109 -3.332,-7.441 -7.442,-7.441 -4.11,0 -7.441,3.332 -7.441,7.441 0,4.109 3.331,7.441 7.441,7.441 C -3.332,7.441 0,4.109 0,0"
             style="fill:#26333b;fill-opacity:1;fill-rule:nonzero;stroke:none"
             id="path58" />
        </g>
        <g
           id="g60"
           transform="translate(404.4307,217.6299)">
          <path
             d="m 0,0 c 0,-3.028 -2.455,-5.483 -5.483,-5.483 -3.029,0 -5.484,2.455 -5.484,5.483 0,3.028 2.455,5.483 5.484,5.483 C -2.455,5.483 0,3.028 0,0"
             style="fill:#26333b;fill-opacity:1;fill-rule:nonzero;stroke:none"
             id="path62" />
        </g>
        <g
           id="g64"
           transform="translate(409.5879,378.3027)">
          <path
             d="m 0,0 c 0,-2.163 -1.754,-3.917 -3.917,-3.917 -2.163,0 -3.916,1.754 -3.916,3.917 0,2.163 1.753,3.917 3.916,3.917 C -1.754,3.917 0,2.163 0,0"
             style="fill:#26333b;fill-opacity:1;fill-rule:nonzero;stroke:none"
             id="path66" />
        </g>
        <g
           id="g68"
           transform="translate(209.8955,382.2197)">
          <path
             d="m 0,0 c 0,-3.245 -2.63,-5.875 -5.875,-5.875 -3.245,0 -5.875,2.63 -5.875,5.875 0,3.245 2.63,5.875 5.875,5.875 C -2.63,5.875 0,3.245 0,0"
             style="fill:#26333b;fill-opacity:1;fill-rule:nonzero;stroke:none"
             id="path70" />
        </g>
        <g
           id="g72"
           transform="translate(209.9497,383.3994)">
          <path
             d="M 0,0 -0.373,0.689 C 1.295,1.59 3.228,2.027 5.11,1.943 L 5.076,1.161 C 3.336,1.235 1.543,0.833 0,0 m 13.463,-4.359 c -0.77,1.589 -1.957,2.943 -3.434,3.918 l 0.432,0.653 c 1.594,-1.051 2.875,-2.514 3.707,-4.229 z M -5.146,-8.622 h -0.783 c 0,1.914 0.516,3.789 1.493,5.423 l 0.673,-0.403 c -0.904,-1.512 -1.383,-3.248 -1.383,-5.02 m 18.361,-6.197 -0.634,0.46 c 1.037,1.431 1.666,3.118 1.819,4.878 l 0.78,-0.068 c -0.165,-1.901 -0.845,-3.723 -1.965,-5.27 m -15.136,-2.092 c -1.498,1.189 -2.647,2.758 -3.323,4.537 l 0.732,0.278 c 0.626,-1.647 1.69,-3.1 3.078,-4.201 z m 6.567,-2.285 c -0.466,0 -0.933,0.03 -1.389,0.09 l 0.101,0.776 c 1.742,-0.228 3.543,0.016 5.16,0.712 l 0.31,-0.719 c -1.323,-0.57 -2.73,-0.859 -4.182,-0.859"
             style="fill:#26333b;fill-opacity:1;fill-rule:nonzero;stroke:none"
             id="path74" />
        </g>
        <g
           id="g76"
           transform="translate(404.7441,221.0146)">
          <path
             d="M 0,0 -0.44,0.647 C 1.133,1.718 2.876,2.436 4.741,2.781 L 4.884,2.012 C 3.126,1.686 1.483,1.009 0,0 M 14.962,-0.316 C 13.521,0.755 11.908,1.5 10.167,1.9 l 0.176,0.764 c 1.846,-0.425 3.559,-1.217 5.086,-2.352 z m -20.483,-8.432 -0.774,0.117 c 0.283,1.877 0.942,3.644 1.958,5.251 l 0.663,-0.419 c -0.958,-1.514 -1.579,-3.18 -1.847,-4.949 m 25.629,-0.538 c -0.194,1.779 -0.744,3.469 -1.635,5.021 l 0.678,0.391 c 0.947,-1.647 1.531,-3.439 1.736,-5.328 z m -0.283,-6.895 -0.718,0.314 c 0.715,1.633 1.077,3.372 1.077,5.172 h 0.783 c 0,-1.909 -0.384,-3.753 -1.142,-5.486 m -23.296,-3.048 c -1.185,1.489 -2.034,3.173 -2.52,5.005 l 0.758,0.201 c 0.459,-1.727 1.257,-3.314 2.376,-4.718 z m 15.251,-4.413 -0.259,0.74 c 1.686,0.589 3.208,1.506 4.525,2.727 l 0.532,-0.574 c -1.395,-1.295 -3.011,-2.268 -4.798,-2.893 m -5.556,-0.723 c -1.897,0.141 -3.708,0.664 -5.385,1.553 l 0.367,0.692 c 1.581,-0.838 3.288,-1.33 5.076,-1.464 z"
             style="fill:#26333b;fill-opacity:1;fill-rule:nonzero;stroke:none"
             id="path78" />
        </g>
        <g
           id="g80"
           transform="translate(313.3457,190.1123)">
          <path
             d="m 0,0 3.91,-14.706 81.606,-0.367 c 2.344,-0.011 3.495,-1.804 2.577,-3.991 l -36.209,-86.212 c -0.684,-1.626 -2.86,-2.931 -4.864,-2.922 l -133.847,0.603 c -2.005,0.009 -3.415,1.329 -3.149,2.958 l 13.524,82.873 1.21,7.415 2.081,12.749 c 0.376,2.307 2.633,4.179 5.039,4.168 L -3.245,2.275 C -1.621,2.269 -0.369,1.39 0,0"
             style="fill:#ff931f;fill-opacity:1;fill-rule:nonzero;stroke:none"
             id="path82" />
        </g>
        <g
           id="g84"
           transform="translate(245.2241,192.6807)">
          <path
             d="M 0,0 64.876,-0.293 C 66.5,-0.3 67.752,-1.179 68.122,-2.568 l 3.91,-14.706 80.082,-0.361"
             style="fill:none;stroke:#03172d;stroke-width:0.75;stroke-linecap:butt;stroke-linejoin:miter;stroke-miterlimit:10;stroke-dasharray:none;stroke-opacity:1"
             id="path86" />
        </g>
        <path
           d="M 233.273,157.957 H 351.72 v 60.72 H 233.273 Z"
           style="fill:#ffffff;fill-opacity:1;fill-rule:nonzero;stroke:none"
           id="path88" />
        <g
           id="g90"
           transform="translate(244,218.667)">
          <path
             d="M 0,0 H 84.333"
             style="fill:none;stroke:#03172d;stroke-width:0.75;stroke-linecap:butt;stroke-linejoin:miter;stroke-miterlimit:10;stroke-dasharray:none;stroke-opacity:1"
             id="path92" />
        </g>
        <g
           id="g94"
           transform="translate(282.9941,193.5068)">
          <path
             d="m 0,0 6.761,-12.98 h 69.576 c 1.999,0 3.619,-1.62 3.619,-3.619 v -91.374 c 0,-1.998 -1.62,-3.618 -3.619,-3.618 H -57.104 c -2,0 -3.62,1.62 -3.62,3.618 v 88.208 6.785 11.309 c 0,1.998 1.62,3.618 3.62,3.618 H -3.209 C -1.86,1.947 -0.623,1.197 0,0"
             style="fill:#ffb920;fill-opacity:1;fill-rule:nonzero;stroke:none"
             id="path96" />
        </g>
        <g
           id="g98"
           transform="translate(225.8896,195.4541)">
          <path
             d="m 0,0 h 53.896 c 1.348,0 2.585,-0.75 3.208,-1.947 l 6.761,-12.981 h 69.576"
             style="fill:none;stroke:#03172d;stroke-width:0.75;stroke-linecap:butt;stroke-linejoin:miter;stroke-miterlimit:10;stroke-dasharray:none;stroke-opacity:1"
             id="path100" />
        </g>
        <g
           id="g102"
           transform="translate(335.1123,177.1348)">
          <path
             d="m 0,0 c 0,10.559 8.56,19.117 19.117,19.117 10.559,0 19.117,-8.558 19.117,-19.117 0,-10.558 -8.558,-19.117 -19.117,-19.117 C 8.56,-19.117 0,-10.558 0,0"
             style="fill:#03172d;fill-opacity:1;fill-rule:nonzero;stroke:none"
             id="path104" />
        </g>
        <g
           id="g106"
           transform="translate(362.3789,170.0254)">
          <path
             d="M 0,0 -7.109,7.109 0,14.219 c 0.286,0.286 0.286,0.754 0,1.04 -0.286,0.286 -0.754,0.286 -1.04,0 l -7.109,-7.11 -7.11,7.11 c -0.285,0.286 -0.754,0.286 -1.04,0 -0.286,-0.286 -0.285,-0.754 0,-1.04 L -9.189,7.109 -16.299,0 c -0.285,-0.286 -0.285,-0.754 0,-1.04 0.286,-0.286 0.754,-0.286 1.04,0 l 7.11,7.109 7.109,-7.109 c 0.286,-0.286 0.754,-0.286 1.04,0 0.286,0.286 0.286,0.754 0,1.04"
             style="fill:#ffffff;fill-opacity:1;fill-rule:nonzero;stroke:none"
             id="path108" />
        </g>
        <g
           id="g110"
           transform="translate(277.1523,112.8389)">
          <path
             d="M 0,0 C 11.741,15.88 26.542,9.363 30.295,0"
             style="fill:none;stroke:#03172d;stroke-width:0.75;stroke-linecap:butt;stroke-linejoin:miter;stroke-miterlimit:10;stroke-dasharray:none;stroke-opacity:1"
             id="path112" />
        </g>
        <g
           id="g114"
           transform="translate(274.6963,146.0762)">
          <path
             d="m 0,0 c 0,-4.145 -1.854,-7.505 -4.141,-7.505 -2.288,0 -4.141,3.36 -4.141,7.505 0,4.145 1.853,7.504 4.141,7.504 C -1.854,7.504 0,4.145 0,0"
             style="fill:#03172d;fill-opacity:1;fill-rule:nonzero;stroke:none"
             id="path116" />
        </g>
        <g
           id="g118"
           transform="translate(318.1865,146.0762)">
          <path
             d="m 0,0 c 0,-4.145 -1.854,-7.505 -4.142,-7.505 -2.287,0 -4.141,3.36 -4.141,7.505 0,4.145 1.854,7.504 4.141,7.504 C -1.854,7.504 0,4.145 0,0"
             style="fill:#03172d;fill-opacity:1;fill-rule:nonzero;stroke:none"
             id="path120" />
        </g>
        <g
           id="g122"
           transform="translate(145.356,364.3745)">
          <path
             d="m 0,0 c 0,0 8.009,11.684 18.025,5.859 12.54,-7.292 -2.604,-24.664 6.664,-29.691 9.269,-5.027 18.852,-5.418 21.522,-19.323 3.492,-18.178 -29.39,-43.736 -57.196,-27.555 -27.806,16.18 -17.914,46.463 -4.856,52.491 C -0.13,-10.966 0,0 0,0"
             style="fill:#03172d;fill-opacity:1;fill-rule:nonzero;stroke:none"
             id="path124" />
        </g>
        <g
           id="g126"
           transform="translate(150.8462,336.9512)">
          <path
             d="m 0,0 v -16.047 c 0,-2.079 -0.845,-3.959 -2.208,-5.322 -1.355,-1.363 -3.236,-2.208 -5.314,-2.208 -4.158,0 -7.523,3.372 -7.523,7.53 V 0 Z"
             style="fill:#e88b7b;fill-opacity:1;fill-rule:nonzero;stroke:none"
             id="path128" />
        </g>
        <g
           id="g130"
           transform="translate(124.3315,341.9111)">
          <path
             d="m 0,0 c 0.624,-3.049 3.603,-5.016 6.652,-4.391 3.05,0.624 5.016,3.602 4.392,6.652 C 10.419,5.311 7.441,7.277 4.392,6.653 1.342,6.028 -0.625,3.05 0,0"
             style="fill:#e88b7b;fill-opacity:1;fill-rule:nonzero;stroke:none"
             id="path132" />
        </g>
        <g
           id="g134"
           transform="translate(125.876,344.0483)">
          <path
             d="M 0,0 4.466,-3.022"
             style="fill:none;stroke:#03172d;stroke-width:0.75;stroke-linecap:butt;stroke-linejoin:miter;stroke-miterlimit:10;stroke-dasharray:none;stroke-opacity:1"
             id="path136" />
        </g>
        <g
           id="g138"
           transform="translate(156.2373,343.0425)">
          <path
             d="m 0,0 c 0.624,-3.05 3.603,-5.016 6.652,-4.392 3.05,0.624 5.016,3.603 4.392,6.653 C 10.419,5.311 7.441,7.277 4.392,6.652 1.341,6.028 -0.625,3.049 0,0"
             style="fill:#e88b7b;fill-opacity:1;fill-rule:nonzero;stroke:none"
             id="path140" />
        </g>
        <g
           id="g142"
           transform="translate(161.2305,344.1729)">
          <path
             d="M 0,0 C 0,0 3.224,3.525 2.091,11.885 H -2.428 Z"
             style="fill:#03172d;fill-opacity:1;fill-rule:nonzero;stroke:none"
             id="path144" />
        </g>
        <g
           id="g146"
           transform="translate(160.8311,341.686)">
          <path
             d="M 0,0 4.372,4.235"
             style="fill:none;stroke:#03172d;stroke-width:0.75;stroke-linecap:butt;stroke-linejoin:miter;stroke-miterlimit:10;stroke-dasharray:none;stroke-opacity:1"
             id="path148" />
        </g>
        <g
           id="g150"
           transform="translate(147.1021,366.2017)">
          <path
             d="M 0,0 C 8.095,0 14.657,-6.562 14.657,-14.657 V -26.7 c 0,-0.3 -0.024,-0.592 -0.063,-0.883 -0.213,-1.42 -0.938,-2.729 -2.066,-3.66 L 6.589,-36.18 c -1.798,-1.498 -4.321,-1.79 -6.427,-0.733 l -11.57,5.804 c -1.995,1.01 -3.249,3.052 -3.249,5.276 v 11.176 C -14.657,-6.562 -8.095,0 0,0"
             style="fill:#e88b7b;fill-opacity:1;fill-rule:nonzero;stroke:none"
             id="path152" />
        </g>
        <g
           id="g154"
           transform="translate(140.228,332.9038)">
          <path
             d="m 0,0 6.73,-3.376 c 1.139,-0.572 2.395,-0.869 3.667,-0.869 h 0.501"
             style="fill:none;stroke:#03172d;stroke-width:0.75;stroke-linecap:butt;stroke-linejoin:miter;stroke-miterlimit:10;stroke-dasharray:none;stroke-opacity:1"
             id="path156" />
        </g>
        <g
           id="g158"
           transform="translate(149.3999,366.2017)">
          <path
             d="M 0,0 3.727,-25.663 H -0.95"
             style="fill:none;stroke:#03172d;stroke-width:0.75;stroke-linecap:butt;stroke-linejoin:miter;stroke-miterlimit:10;stroke-dasharray:none;stroke-opacity:1"
             id="path160" />
        </g>
        <g
           id="g162"
           transform="translate(161.7593,347.5615)">
          <path
             d="m 0,0 v -7.516 c -0.173,-0.024 -0.355,-0.039 -0.544,-0.039 -2.098,0 -3.802,1.695 -3.802,3.801 0,2.098 1.704,3.794 3.802,3.794 C -0.355,0.04 -0.173,0.023 0,0"
             style="fill:#e5715c;fill-opacity:1;fill-rule:nonzero;stroke:none"
             id="path164" />
        </g>
        <g
           id="g166"
           transform="translate(143.9038,343.8037)">
          <path
             d="m 0,0 c 0,-2.099 -1.701,-3.8 -3.8,-3.8 -2.099,0 -3.8,1.701 -3.8,3.8 0,2.099 1.701,3.8 3.8,3.8 C -1.701,3.8 0,2.099 0,0"
             style="fill:#e5715c;fill-opacity:1;fill-rule:nonzero;stroke:none"
             id="path168" />
        </g>
        <g
           id="g170"
           transform="translate(132.4453,352.9224)">
          <path
             d="m 0,0 v -9.501 c 0,0 3.772,3.351 3.668,9.949 z"
             style="fill:#03172d;fill-opacity:1;fill-rule:nonzero;stroke:none"
             id="path172" />
        </g>
        <g
           id="g174"
           transform="translate(165.959,368.2217)">
          <path
             d="m 0,0 c -10.02,5.825 -20.606,-3.844 -20.606,-3.844 0,0 5.115,-11.008 -15.837,-18.219 -3.45,-1.187 -7.75,-6.977 -9.829,-10.289 0,0 4.591,13.243 6.038,21.808 1.454,8.573 9.067,7.249 9.067,7.249 0,0 4.614,11.275 17.375,11.222 C -4.953,7.889 0,0 0,0"
             style="fill:#03172d;fill-opacity:1;fill-rule:nonzero;stroke:none"
             id="path176" />
        </g>
        <g
           id="g178"
           transform="translate(158.7573,346.856)">
          <path
             d="m 0,0 c 0,-1.324 -0.583,-2.39 -1.307,-2.39 -0.725,0 -1.316,1.066 -1.316,2.39 0,1.066 0.392,1.973 0.924,2.273 H -1.69 L -0.083,0.849 C -0.033,0.591 0,0.3 0,0"
             style="fill:#03172d;fill-opacity:1;fill-rule:nonzero;stroke:none"
             id="path180" />
        </g>
        <g
           id="g182"
           transform="translate(144.9858,346.856)">
          <path
             d="m 0,0 c 0,-1.324 -0.583,-2.39 -1.307,-2.39 -0.733,0 -1.316,1.066 -1.316,2.39 0,0.383 0.05,0.741 0.142,1.058 l 1.84,0.982 C -0.25,1.624 0,0.866 0,0"
             style="fill:#03172d;fill-opacity:1;fill-rule:nonzero;stroke:none"
             id="path184" />
        </g>
        <g
           id="g186"
           transform="translate(156.0449,357.3325)">
          <path
             d="M 0,0 C 1.822,1.185 2.97,0.921 2.698,-1.607 Z"
             style="fill:#03172d;fill-opacity:1;fill-rule:nonzero;stroke:none"
             id="path188" />
        </g>
        <g
           id="g190"
           transform="translate(141.1665,355.6592)">
          <path
             d="M 0,0 C -0.41,2.135 0.268,3.098 2.506,1.892 Z"
             style="fill:#03172d;fill-opacity:1;fill-rule:nonzero;stroke:none"
             id="path192" />
        </g>
        <g
           id="g194"
           transform="translate(147.1021,335.7847)">
          <path
             d="M 0,0 C 1.977,2.674 4.469,1.577 5.101,0"
             style="fill:none;stroke:#03172d;stroke-width:0.75;stroke-linecap:butt;stroke-linejoin:miter;stroke-miterlimit:10;stroke-dasharray:none;stroke-opacity:1"
             id="path196" />
        </g>
        <g
           id="g198"
           transform="translate(175.1768,267.3145)">
          <path
             d="m 0,0 v 0 c 3.52,1.814 4.902,6.139 3.088,9.659 l -16.489,32.972 c -1.814,3.52 -6.139,4.903 -9.659,3.089 -3.52,-1.815 -4.902,-6.139 -3.088,-9.659 L -9.995,4.385 C -8.658,1.844 -6.24,-0.032 -3.399,-0.447 -2.248,-0.615 -1.056,-0.544 0,0"
             style="fill:#e88b7b;fill-opacity:1;fill-rule:nonzero;stroke:none"
             id="path200" />
        </g>
        <g
           id="g202"
           transform="translate(107.8345,260.7612)">
          <path
             d="m 0,0 v 0 c -3.837,0.978 -6.155,4.882 -5.178,8.719 l 8.667,35.832 c 0.978,3.838 4.882,6.156 8.719,5.178 3.838,-0.978 6.156,-4.882 5.178,-8.719 L 8.756,6.517 C 8.023,3.741 6.087,1.37 3.413,0.328 2.329,-0.094 1.151,-0.293 0,0"
             style="fill:#e88b7b;fill-opacity:1;fill-rule:nonzero;stroke:none"
             id="path204" />
        </g>
        <g
           id="g206"
           transform="translate(174.915,295.7935)">
          <path
             d="m 0,0 -13.75,0.905 -14.478,-4.709 14.477,-0.563 z"
             style="fill:#dc9901;fill-opacity:1;fill-rule:nonzero;stroke:none"
             id="path208" />
        </g>
        <g
           id="g210"
           transform="translate(170.4067,308.6318)">
          <path
             d="m 0,0 2.255,-18.024 -21.698,-2.995 3.174,32.277 5.932,-0.808 C -4.921,9.712 -0.679,5.424 0,0"
             style="fill:#ffb920;fill-opacity:1;fill-rule:nonzero;stroke:none"
             id="path212" />
        </g>
        <g
           id="g214"
           transform="translate(174.915,295.7935)">
          <path
             d="m 0,0 -13.751,-4.367 -14.477,0.563 2.774,-8.112 12.715,0.661 13.479,4.215 z"
             style="fill:#ffffff;fill-opacity:1;fill-rule:nonzero;stroke:none"
             id="path216" />
        </g>
        <g
           id="g218"
           transform="translate(159.4126,262.6772)">
          <path
             d="m 0,0 h -28.686 l -18.436,35.762 c -3.036,5.891 -0.503,13.123 5.544,15.833 l 19.047,8.532 17.257,-2.915 C 0.699,56.204 4.878,50.75 4.298,44.719 Z"
             style="fill:#ffb920;fill-opacity:1;fill-rule:nonzero;stroke:none"
             id="path220" />
        </g>
        <g
           id="g222"
           transform="translate(151.6963,309.8921)">
          <path
             d="M 0,0 2.135,14.071 -22.008,16.414 -19.765,0 Z"
             style="fill:#ffb920;fill-opacity:1;fill-rule:nonzero;stroke:none"
             id="path224" />
        </g>
        <g
           id="g226"
           transform="translate(130.5542,319.9697)">
          <path
             d="m 0,0 c 0,0 5.471,-24.259 14.803,-27.229 0.438,-0.139 0.856,-0.206 1.251,-0.206 8.031,0 7.53,27.355 7.53,27.355 C 22.545,-6.853 18.645,-10.561 13.922,-10.561 9.442,-10.561 4.221,-7.224 0,0 m 1.855,-4.091 c 3.621,-4.636 7.88,-7.22 12.067,-7.22 3.838,0 6.97,2.18 8.828,5.931 -0.067,-1.691 -0.182,-3.656 -0.375,-5.695 -0.714,-7.501 -2.157,-12.551 -4.172,-14.605 -0.664,-0.676 -1.368,-1.005 -2.149,-1.005 -0.323,0 -0.668,0.058 -1.023,0.171 -3.591,1.142 -7.196,6.077 -10.425,14.272 -1.173,2.977 -2.099,5.894 -2.751,8.151"
             style="fill:#ffffff;fill-opacity:1;fill-rule:nonzero;stroke:none"
             id="path228" />
        </g>
        <g
           id="g230"
           transform="translate(165.7515,95.8896)">
          <path
             d="M 0,0 H 14.457 L 8.568,44.721 H -5.889 Z"
             style="fill:#e88b7b;fill-opacity:1;fill-rule:nonzero;stroke:none"
             id="path232" />
        </g>
        <g
           id="g234"
           transform="translate(164.375,95.957)">
          <path
             d="M 0,0 H 16.28 L 13.674,21.279 -2.455,20.045 Z"
             style="fill:#ffffff;fill-opacity:1;fill-rule:nonzero;stroke:none"
             id="path236" />
        </g>
        <g
           id="g238"
           transform="translate(163.1035,82.6768)">
          <path
             d="m 0,0 h 36.937 l -0.966,3.297 c -0.318,1.076 -0.792,2.074 -1.398,2.977 -1.284,1.92 -3.165,3.4 -5.4,4.187 l -1,0.352 c -0.982,0.346 -1.902,0.8 -2.756,1.351 -0.734,0.474 -1.415,1.012 -2.029,1.62 -1.342,1.306 -2.4,2.906 -3.079,4.712 H -0.445 L -0.101,6.274 Z"
             style="fill:#03172d;fill-opacity:1;fill-rule:nonzero;stroke:none"
             id="path240" />
        </g>
        <g
           id="g242"
           transform="translate(177.2905,99.0879)">
          <path
             d="M 0,0 H 7.296"
             style="fill:none;stroke:#03172d;stroke-width:0.75;stroke-linecap:butt;stroke-linejoin:miter;stroke-miterlimit:10;stroke-dasharray:none;stroke-opacity:1"
             id="path244" />
        </g>
        <g
           id="g246"
           transform="translate(179.1733,96.5469)">
          <path
             d="M 0,0 H 7.296"
             style="fill:none;stroke:#03172d;stroke-width:0.75;stroke-linecap:butt;stroke-linejoin:miter;stroke-miterlimit:10;stroke-dasharray:none;stroke-opacity:1"
             id="path248" />
        </g>
        <g
           id="g250"
           transform="translate(170.0361,91.5625)">
          <path
             d="M 0,0 C -0.016,-0.497 0.375,-0.9 0.872,-0.9 1.369,-0.9 1.785,-0.497 1.801,0 1.816,0.497 1.426,0.9 0.929,0.9 0.431,0.9 0.015,0.497 0,0 Z"
             style="fill:none;stroke:#03172d;stroke-width:0.75;stroke-linecap:butt;stroke-linejoin:miter;stroke-miterlimit:10;stroke-dasharray:none;stroke-opacity:1"
             id="path252" />
        </g>
        <g
           id="g254"
           transform="translate(174.4424,91.5625)">
          <path
             d="M 0,0 C -0.016,-0.497 0.375,-0.9 0.873,-0.9 1.37,-0.9 1.786,-0.497 1.801,0 1.817,0.497 1.426,0.9 0.929,0.9 0.432,0.9 0.016,0.497 0,0 Z"
             style="fill:none;stroke:#03172d;stroke-width:0.75;stroke-linecap:butt;stroke-linejoin:miter;stroke-miterlimit:10;stroke-dasharray:none;stroke-opacity:1"
             id="path256" />
        </g>
        <g
           id="g258"
           transform="translate(163.1035,82.6768)">
          <path
             d="M 0,0 H 36.937 L 35.971,3.297 C 35.653,4.373 35.179,5.371 34.573,6.274 H -0.101 Z"
             style="fill:#ffffff;fill-opacity:1;fill-rule:nonzero;stroke:none"
             id="path260" />
        </g>
        <g
           id="g262"
           transform="translate(162.9043,85.8135)">
          <path
             d="M 0,0 H 23.228"
             style="fill:none;stroke:#03172d;stroke-width:0.75;stroke-linecap:butt;stroke-linejoin:miter;stroke-miterlimit:10;stroke-dasharray:none;stroke-opacity:1"
             id="path264" />
        </g>
        <g
           id="g266"
           transform="translate(179.3105,82.6768)">
          <path
             d="m 0,0 h 20.729 l -0.965,3.297 c -0.318,1.076 -0.792,2.074 -1.398,2.977 -1.284,1.92 -3.165,3.4 -5.4,4.187 l -1,0.352 c -0.982,0.346 -1.903,0.8 -2.756,1.351 C 4.403,9.942 0.823,5.403 0,0"
             style="fill:#ffffff;fill-opacity:1;fill-rule:nonzero;stroke:none"
             id="path268" />
        </g>
        <g
           id="g270"
           transform="translate(183.4121,101.1729)">
          <path
             d="m 0,0 0.474,1.837 c 0.334,1.294 -0.611,2.525 -1.938,2.525 h -1.85 c -1.461,0 -2.846,-0.742 -3.675,-1.97 L -8.605,0 Z"
             style="fill:#03172d;fill-opacity:1;fill-rule:nonzero;stroke:none"
             id="path272" />
        </g>
        <g
           id="g274"
           transform="translate(122.855,269.7861)">
          <path
             d="M 0,0 39.875,2.162 36.381,-7.941 3.186,-7.583 Z"
             style="fill:#03172d;fill-opacity:1;fill-rule:nonzero;stroke:none"
             id="path276" />
        </g>
        <g
           id="g278"
           transform="translate(159.2363,261.8447)">
          <path
             d="m 0,0 c 0,0 13.659,-12.628 14.468,-35.151 h -61.081 c 0,21.168 13.417,35.51 13.417,35.51 z"
             style="fill:#03172d;fill-opacity:1;fill-rule:nonzero;stroke:none"
             id="path280" />
        </g>
        <g
           id="g282"
           transform="translate(124.0859,253.3765)">
          <path
             d="m 0,0 h 9.578 c 0,0 -4.728,-10.904 -14.152,-11.621"
             style="fill:none;stroke:#ffffff;stroke-width:0.75;stroke-linecap:butt;stroke-linejoin:miter;stroke-miterlimit:10;stroke-dasharray:none;stroke-opacity:1"
             id="path284" />
        </g>
        <g
           id="g286"
           transform="translate(165.7705,253.3765)">
          <path
             d="m 0,0 h -5.28 c 0,0 2.018,-10.324 10.59,-11.621"
             style="fill:none;stroke:#ffffff;stroke-width:0.75;stroke-linecap:butt;stroke-linejoin:miter;stroke-miterlimit:10;stroke-dasharray:none;stroke-opacity:1"
             id="path288" />
        </g>
        <g
           id="g290"
           transform="translate(147.8711,261.1621)">
          <path
             d="m 0,0 -0.922,-16.714 c 0,0 -3.101,1.648 -2.441,7.213"
             style="fill:none;stroke:#ffffff;stroke-width:0.75;stroke-linecap:butt;stroke-linejoin:miter;stroke-miterlimit:10;stroke-dasharray:none;stroke-opacity:1"
             id="path292" />
        </g>
        <path
           d="m 136.718,260.113 h -8.698 v 3.455 h 8.698 z"
           style="fill:#03172d;fill-opacity:1;fill-rule:nonzero;stroke:none"
           id="path294" />
        <path
           d="m 157.856,260.113 h -3.027 v 3.455 h 3.027 z"
           style="fill:#03172d;fill-opacity:1;fill-rule:nonzero;stroke:none"
           id="path296" />
        <path
           d="m 152.835,260.113 h -13.701 v 3.455 h 13.701 z"
           style="fill:#03172d;fill-opacity:1;fill-rule:nonzero;stroke:none"
           id="path298" />
        <path
           d="m 150.27,259.418 h -5.861 v 4.845 h 5.861 z"
           style="fill:#ffffff;fill-opacity:1;fill-rule:nonzero;stroke:none"
           id="path300" />
        <g
           id="g302"
           transform="translate(109.7827,95.9189)">
          <path
             d="m 0,0 14.459,-0.65 7.395,48.531 -14.459,0.65 z"
             style="fill:#e88b7b;fill-opacity:1;fill-rule:nonzero;stroke:none"
             id="path304" />
        </g>
        <g
           id="g306"
           transform="translate(108.9502,95.957)">
          <path
             d="M 0,0 16.264,-0.731 19.072,21.38 2.836,20.403 Z"
             style="fill:#ffffff;fill-opacity:1;fill-rule:nonzero;stroke:none"
             id="path308" />
        </g>
        <g
           id="g310"
           transform="translate(105.7803,82.6768)">
          <path
             d="m 0,0 h 36.937 l -0.325,3.297 c -0.109,1.076 -0.389,2.074 -0.819,2.977 -0.911,1.92 -2.503,3.4 -4.586,4.187 l -0.932,0.352 c -0.914,0.346 -1.746,0.8 -2.492,1.351 -0.642,0.474 -1.219,1.012 -1.715,1.62 -1.088,1.306 -1.834,2.906 -2.162,4.712 H 3.152 L 1.119,6.274 Z"
             style="fill:#03172d;fill-opacity:1;fill-rule:nonzero;stroke:none"
             id="path312" />
        </g>
        <g
           id="g314"
           transform="translate(123.1587,99.0879)">
          <path
             d="M 0,0 H 7.296"
             style="fill:none;stroke:#03172d;stroke-width:0.75;stroke-linecap:butt;stroke-linejoin:miter;stroke-miterlimit:10;stroke-dasharray:none;stroke-opacity:1"
             id="path316" />
        </g>
        <g
           id="g318"
           transform="translate(124.5469,96.5469)">
          <path
             d="M 0,0 H 7.296"
             style="fill:none;stroke:#03172d;stroke-width:0.75;stroke-linecap:butt;stroke-linejoin:miter;stroke-miterlimit:10;stroke-dasharray:none;stroke-opacity:1"
             id="path320" />
        </g>
        <g
           id="g322"
           transform="translate(114.4404,91.5625)">
          <path
             d="M 0,0 C -0.112,-0.497 0.2,-0.9 0.697,-0.9 1.194,-0.9 1.689,-0.497 1.801,0 1.914,0.497 1.601,0.9 1.104,0.9 0.606,0.9 0.113,0.497 0,0 Z"
             style="fill:none;stroke:#03172d;stroke-width:0.75;stroke-linecap:butt;stroke-linejoin:miter;stroke-miterlimit:10;stroke-dasharray:none;stroke-opacity:1"
             id="path324" />
        </g>
        <g
           id="g326"
           transform="translate(118.8472,91.5625)">
          <path
             d="M 0,0 C -0.112,-0.497 0.2,-0.9 0.697,-0.9 1.194,-0.9 1.688,-0.497 1.801,0 1.914,0.497 1.601,0.9 1.104,0.9 0.606,0.9 0.112,0.497 0,0 Z"
             style="fill:none;stroke:#03172d;stroke-width:0.75;stroke-linecap:butt;stroke-linejoin:miter;stroke-miterlimit:10;stroke-dasharray:none;stroke-opacity:1"
             id="path328" />
        </g>
        <g
           id="g330"
           transform="translate(105.7803,82.6768)">
          <path
             d="M 0,0 H 36.937 L 36.612,3.297 C 36.503,4.373 36.223,5.371 35.793,6.274 H 1.119 Z"
             style="fill:#ffffff;fill-opacity:1;fill-rule:nonzero;stroke:none"
             id="path332" />
        </g>
        <g
           id="g334"
           transform="translate(129.6895,85.8135)">
          <path
             d="M 0,0 H -23.228"
             style="fill:none;stroke:#03172d;stroke-width:0.75;stroke-linecap:butt;stroke-linejoin:miter;stroke-miterlimit:10;stroke-dasharray:none;stroke-opacity:1"
             id="path336" />
        </g>
        <g
           id="g338"
           transform="translate(121.9868,82.6768)">
          <path
             d="m 0,0 h 20.73 l -0.325,3.297 c -0.109,1.076 -0.389,2.074 -0.819,2.977 -0.91,1.92 -2.503,3.4 -4.586,4.187 l -0.931,0.352 c -0.915,0.346 -1.747,0.8 -2.493,1.351 C 6.337,9.942 1.874,5.403 0,0"
             style="fill:#ffffff;fill-opacity:1;fill-rule:nonzero;stroke:none"
             id="path340" />
        </g>
        <g
           id="g342"
           transform="translate(129.686,101.1729)">
          <path
             d="m 0,0 0.831,1.837 c 0.586,1.294 -0.12,2.525 -1.447,2.525 h -1.85 c -1.461,0 -2.99,-0.742 -4.058,-1.97 L -8.605,0 Z"
             style="fill:#03172d;fill-opacity:1;fill-rule:nonzero;stroke:none"
             id="path344" />
        </g>
        <g
           id="g346"
           transform="translate(144.522,227.7773)">
          <path
             d="M 0,0 8.705,-105.847 H 38.946 L 29.096,-0.431 Z"
             style="fill:#03172d;fill-opacity:1;fill-rule:nonzero;stroke:none"
             id="path348" />
        </g>
        <g
           id="g350"
           transform="translate(117.4082,179.2686)">
          <path
             d="m 0,0 -10.647,-57.338 h 30.241 l 9.502,56.907 z"
             style="fill:#03172d;fill-opacity:1;fill-rule:nonzero;stroke:none"
             id="path352" />
        </g>
        <g
           id="g354"
           transform="translate(117.4082,179.2686)">
          <path
             d="M 0,0 C 0,0 -4.785,31.43 -4.763,47.586 H 25.479 L 29.096,-0.431 Z"
             style="fill:#03172d;fill-opacity:1;fill-rule:nonzero;stroke:none"
             id="path356" />
        </g>
        <g
           id="g358"
           transform="translate(108.1563,303.0894)">
          <path
             d="m 0,0 -3.065,-15.753 21.518,-4.094 0.409,35.119 -10.07,-4.348 C 4.237,8.958 0.947,4.87 0,0"
             style="fill:#ffb920;fill-opacity:1;fill-rule:nonzero;stroke:none"
             id="path360" />
        </g>
        <g
           id="g362"
           transform="translate(103.1045,292.6304)">
          <path
             d="m 0,0 13.622,-2.794 10.018,-1.288 -3.182,-7.96 -21.555,5.049 z"
             style="fill:#ffffff;fill-opacity:1;fill-rule:nonzero;stroke:none"
             id="path364" />
        </g>
        <g
           id="g366"
           transform="translate(159.5879,304.083)">
          <path
             d="M 0,0 C 10.249,-15.168 9.718,-22.434 -2.868,-27.99 Z"
             style="fill:#ffb920;fill-opacity:1;fill-rule:nonzero;stroke:none"
             id="path368" />
        </g>
        <g
           id="g370"
           transform="translate(166.7642,291.4263)">
          <path
             d="m 0,0 -5.652,10.327 2.599,5.643"
             style="fill:none;stroke:#03172d;stroke-width:0.75;stroke-linecap:butt;stroke-linejoin:miter;stroke-miterlimit:10;stroke-dasharray:none;stroke-opacity:1"
             id="path372" />
        </g>
        <g
           id="g374"
           transform="translate(85.9341,271.5903)">
          <path
             d="m 0,0 c -6.026,3.094 -13.035,2.885 -13.035,2.885 l 2.097,12.31 C 0.906,13.814 4.63,8.745 6.299,5.507 Z"
             style="fill:#e88b7b;fill-opacity:1;fill-rule:nonzero;stroke:none"
             id="path376" />
        </g>
        <g
           id="g378"
           transform="translate(72.8994,274.4756)">
          <path
             d="m 0,0 c 0,0 -5.798,2.382 -8.399,7.05 l 2.705,6.962 c 0,0 3.838,-3.91 7.323,-4.444 0,0 -4.612,3.625 -5.478,6.807 l 2.138,0.687 c 0,0 3.411,-4.25 8.551,-6.057 z"
             style="fill:#e88b7b;fill-opacity:1;fill-rule:nonzero;stroke:none"
             id="path380" />
        </g>
        <g
           id="g382"
           transform="translate(65.2314,283.2788)">
          <path
             d="M 0,0 C 0,0 3.842,-3.892 7.262,-5.79"
             style="fill:none;stroke:#03172d;stroke-width:0.75;stroke-linecap:butt;stroke-linejoin:miter;stroke-miterlimit:10;stroke-dasharray:none;stroke-opacity:1"
             id="path384" />
        </g>
        <g
           id="g386"
           transform="translate(66.2466,286.0205)">
          <path
             d="M 0,0 C 0,0 3.217,-3.75 7.603,-5.633"
             style="fill:none;stroke:#03172d;stroke-width:0.75;stroke-linecap:butt;stroke-linejoin:miter;stroke-miterlimit:10;stroke-dasharray:none;stroke-opacity:1"
             id="path388" />
        </g>
        <g
           id="g390"
           transform="translate(116.9292,269.4819)">
          <path
             d="M 0,0 -29.236,10.012 -33.672,4.853 C -28.695,-0.859 -23.121,-5.886 -16.921,-9.634 -9.509,-14.113 -0.041,-8.66 0,0"
             style="fill:#e88b7b;fill-opacity:1;fill-rule:nonzero;stroke:none"
             id="path392" />
        </g>
        <g
           id="g394"
           transform="translate(157.8564,121.9307)">
          <path
             d="m 0,0 -10.518,108.175 h -5.3"
             style="fill:none;stroke:#ffffff;stroke-width:0.75;stroke-linecap:butt;stroke-linejoin:miter;stroke-miterlimit:10;stroke-dasharray:none;stroke-opacity:1"
             id="path396" />
        </g>
        <g
           id="g398"
           transform="translate(128.02,260.1133)">
          <path
             d="m 0,0 c 0,0 -12.802,-17.883 -10.161,-37.464 2.641,-19.58 4.996,-43.381 4.996,-43.381 l -11.851,-57.338"
             style="fill:none;stroke:#ffffff;stroke-width:0.75;stroke-linecap:butt;stroke-linejoin:miter;stroke-miterlimit:10;stroke-dasharray:none;stroke-opacity:1"
             id="path400" />
        </g>
        <g
           id="g402"
           transform="translate(113.1646,271.356)">
          <path
             d="M 0,0 -9.221,2.676"
             style="fill:none;stroke:#03172d;stroke-width:0.75;stroke-linecap:butt;stroke-linejoin:miter;stroke-miterlimit:10;stroke-dasharray:none;stroke-opacity:1"
             id="path404" />
        </g>
        <g
           id="g406"
           transform="translate(194.0874,282.7832)">
          <path
             d="M 0,0 C 5.178,4.368 12.055,5.738 12.055,5.738 L 7.248,17.263 C -3.984,13.258 -6.475,7.482 -7.375,3.953 Z"
             style="fill:#e88b7b;fill-opacity:1;fill-rule:nonzero;stroke:none"
             id="path408" />
        </g>
        <g
           id="g410"
           transform="translate(206.1421,288.521)">
          <path
             d="m 0,0 c 0,0 5.115,3.623 6.602,8.755 l -4.199,6.177 c 0,0 -2.862,-4.671 -6.139,-5.974 0,0 3.681,4.568 3.81,7.862 l -2.237,0.19 c 0,0 -2.369,-4.907 -6.973,-7.822 z"
             style="fill:#e88b7b;fill-opacity:1;fill-rule:nonzero;stroke:none"
             id="path412" />
        </g>
        <g
           id="g414"
           transform="translate(211.6377,298.8203)">
          <path
             d="M 0,0 C 0,0 -2.871,-4.654 -5.777,-7.272"
             style="fill:none;stroke:#03172d;stroke-width:0.75;stroke-linecap:butt;stroke-linejoin:miter;stroke-miterlimit:10;stroke-dasharray:none;stroke-opacity:1"
             id="path416" />
        </g>
        <g
           id="g418"
           transform="translate(210.0332,301.2646)">
          <path
             d="M 0,0 C 0,0 -2.293,-4.376 -6.144,-7.196"
             style="fill:none;stroke:#03172d;stroke-width:0.75;stroke-linecap:butt;stroke-linejoin:miter;stroke-miterlimit:10;stroke-dasharray:none;stroke-opacity:1"
             id="path420" />
        </g>
        <g
           id="g422"
           transform="translate(164.3564,273.771)">
          <path
             d="m 0,0 26.243,16.32 5.481,-4.032 C 28.155,5.604 23.853,-0.546 18.652,-5.589 12.435,-11.618 1.984,-8.43 0,0"
             style="fill:#e88b7b;fill-opacity:1;fill-rule:nonzero;stroke:none"
             id="path424" />
        </g>
        <g
           id="g426"
           transform="translate(167.6045,276.4424)">
          <path
             d="M 0,0 8.385,4.678"
             style="fill:none;stroke:#03172d;stroke-width:0.75;stroke-linecap:butt;stroke-linejoin:miter;stroke-miterlimit:10;stroke-dasharray:none;stroke-opacity:1"
             id="path428" />
        </g>
        <g
           id="g430"
           transform="translate(111.2139,112.2422)">
          <path
             d="M 0,0 16.24,0.619"
             style="fill:none;stroke:#03172d;stroke-width:0.75;stroke-linecap:butt;stroke-linejoin:miter;stroke-miterlimit:10;stroke-dasharray:none;stroke-opacity:1"
             id="path432" />
        </g>
        <g
           id="g434"
           transform="translate(161.9199,112.5518)">
          <path
             d="M 0,0 16.538,1.347"
             style="fill:none;stroke:#03172d;stroke-width:0.75;stroke-linecap:butt;stroke-linejoin:miter;stroke-miterlimit:10;stroke-dasharray:none;stroke-opacity:1"
             id="path436" />
        </g>
        <g
           id="g438"
           transform="translate(33.915,82.3975)">
          <path
             d="M 0,0 H 432.908"
             style="fill:none;stroke:#03172d;stroke-width:1;stroke-linecap:butt;stroke-linejoin:miter;stroke-miterlimit:10;stroke-dasharray:none;stroke-opacity:1"
             id="path440" />
        </g>
        <g
           id="g442"
           transform="translate(300.7939,329.1611)">
          <path
             d="M 0,0 C 17.568,-3.833 35.136,-7.666 52.704,-11.499 44.675,12.433 74.592,28.085 66.562,52.017 48.993,55.85 31.426,59.683 13.857,63.515 21.888,39.584 -8.03,23.931 0,0"
             style="fill:#ffffff;fill-opacity:1;fill-rule:nonzero;stroke:none"
             id="path444" />
        </g>
        <g
           id="g446"
           transform="translate(361.0254,350.5029)">
          <path
             d="m 0,0 c 5.26,9.538 10.199,19.146 6.33,30.675 -17.568,3.833 -35.136,7.666 -52.704,11.498"
             style="fill:none;stroke:#03172d;stroke-width:0.75;stroke-linecap:butt;stroke-linejoin:miter;stroke-miterlimit:10;stroke-dasharray:none;stroke-opacity:1"
             id="path448" />
        </g>
        <g
           id="g450"
           transform="translate(300.7939,329.1611)">
          <path
             d="M 0,0 C 17.568,-3.833 35.136,-7.666 52.704,-11.499 50.146,-3.872 51.44,2.915 54.134,9.397"
             style="fill:none;stroke:#03172d;stroke-width:0.75;stroke-linecap:butt;stroke-linejoin:miter;stroke-miterlimit:10;stroke-dasharray:none;stroke-opacity:1"
             id="path452" />
        </g>
        <g
           id="g454"
           transform="translate(264.6182,253.7192)">
          <path
             d="M 0,0 C 15.482,9.145 30.964,18.29 46.446,27.435 24.278,39.509 35.552,71.336 13.384,83.409 -2.099,74.264 -17.581,65.119 -33.063,55.974 -10.895,43.9 -22.168,12.073 0,0"
             style="fill:#ffffff;fill-opacity:1;fill-rule:nonzero;stroke:none"
             id="path456" />
        </g>
        <g
           id="g458"
           transform="translate(264.6182,253.7192)">
          <path
             d="M 0,0 C 15.482,9.145 30.964,18.29 46.446,27.435 36.394,32.91 33.218,42.448 30.682,52.364"
             style="fill:none;stroke:#03172d;stroke-width:0.75;stroke-linecap:butt;stroke-linejoin:miter;stroke-miterlimit:10;stroke-dasharray:none;stroke-opacity:1"
             id="path460" />
        </g>
        <g
           id="g462"
           transform="translate(258.8965,325.8433)">
          <path
             d="m 0,0 c -9.114,-5.383 -18.228,-10.767 -27.341,-16.15 11.647,-6.344 14.063,-18.14 16.947,-29.659"
             style="fill:none;stroke:#03172d;stroke-width:0.75;stroke-linecap:butt;stroke-linejoin:miter;stroke-miterlimit:10;stroke-dasharray:none;stroke-opacity:1"
             id="path464" />
        </g>
        <g
           id="g466"
           transform="translate(359.4072,227.9551)">
          <path
             d="m 0,0 c -15.482,9.145 -30.965,18.29 -46.447,27.435 22.169,12.073 10.895,43.9 33.063,55.974 C 2.099,74.264 17.58,65.119 33.063,55.974 10.895,43.9 22.168,12.073 0,0"
             style="fill:#ffffff;fill-opacity:1;fill-rule:nonzero;stroke:none"
             id="path468" />
        </g>
        <g
           id="g470"
           transform="translate(376.9023,259.7651)">
          <path
             d="m 0,0 c -3.167,-12.177 -5.121,-25.071 -17.495,-31.81 -10.281,6.072 -20.563,12.145 -30.844,18.219"
             style="fill:none;stroke:#03172d;stroke-width:0.75;stroke-linecap:butt;stroke-linejoin:miter;stroke-miterlimit:10;stroke-dasharray:none;stroke-opacity:1"
             id="path472" />
        </g>
        <g
           id="g474"
           transform="translate(330.8555,288.7065)">
          <path
             d="M 0,0 C 2.466,9.083 5.885,17.602 15.168,22.658 23.483,17.746 31.799,12.833 40.115,7.922"
             style="fill:none;stroke:#03172d;stroke-width:0.75;stroke-linecap:butt;stroke-linejoin:miter;stroke-miterlimit:10;stroke-dasharray:none;stroke-opacity:1"
             id="path476" />
        </g>
      </g>
    </g>
  </g>
</svg>